<?xml version="1.0" standalone="no"?>
<!DOCTYPE svg PUBLIC "-//W3C//DTD SVG 20010904//EN"
 "http://www.w3.org/TR/2001/REC-SVG-20010904/DTD/svg10.dtd">
<svg version="1.0" xmlns="http://www.w3.org/2000/svg"
 width="256.000000pt" height="256.000000pt" viewBox="0 0 256.000000 256.000000"
 preserveAspectRatio="xMidYMid meet">

<g transform="translate(0.000000,256.000000) scale(0.100000,-0.100000)"
fill="#000000" stroke="none">
<path d="M0 1280 l0 -1280 1280 0 1280 0 0 1280 0 1280 -1280 0 -1280 0 0
-1280z m1721 1014 c30 -9 72 -26 94 -38 22 -13 65 -26 98 -29 71 -7 117 -32
139 -77 41 -81 11 -199 -82 -322 -35 -46 -70 -99 -78 -118 -8 -19 -15 -36 -16
-37 -2 -2 -25 3 -52 11 -115 33 -344 66 -463 66 l-46 0 3 49 c3 38 -3 61 -27
109 -34 68 -39 114 -16 168 8 19 10 32 5 29 -5 -3 -16 -28 -24 -55 -17 -55
-13 -78 28 -157 25 -50 35 -126 18 -137 -4 -2 -54 -10 -110 -16 -57 -6 -138
-20 -180 -31 -42 -10 -79 -16 -84 -11 -4 4 -15 39 -24 77 -28 125 -34 144 -60
175 -19 22 -34 30 -59 30 -19 0 -36 -4 -39 -8 -2 -4 10 -6 28 -4 27 3 37 -2
59 -27 27 -32 47 -87 47 -128 0 -13 9 -46 20 -75 11 -28 19 -52 17 -53 -1 -1
-36 -15 -79 -32 -73 -29 -77 -29 -92 -12 -23 27 -62 33 -131 20 -81 -14 -140
-14 -153 2 -6 6 -12 28 -15 47 -4 34 -4 34 -5 -6 -3 -70 33 -82 174 -55 60 12
75 11 99 0 41 -20 41 -33 -4 -53 -21 -10 -58 -31 -82 -46 -40 -27 -44 -28 -72
-14 -16 9 -58 22 -95 29 -73 16 -106 35 -140 86 -19 28 -22 42 -17 79 9 61 44
112 91 132 22 10 77 27 124 39 84 22 86 24 180 113 125 120 155 134 311 141
137 6 215 27 342 92 40 20 90 42 112 49 57 18 191 17 256 -2z m-13 -599 c162
-34 196 -48 189 -77 -4 -13 -13 -54 -22 -93 -18 -78 -53 -140 -90 -157 -38
-17 -124 6 -229 63 -137 73 -223 94 -381 94 -93 -1 -148 -6 -195 -18 -83 -23
-214 -86 -274 -132 -25 -19 -50 -35 -55 -35 -5 0 -16 19 -26 43 -9 23 -25 50
-36 60 -10 10 -19 23 -19 28 0 49 239 170 430 219 135 34 186 39 390 35 162
-3 216 -8 318 -30z m705 -102 c10 -51 -19 -117 -75 -169 -29 -28 -66 -55 -83
-61 -24 -9 -201 -66 -275 -89 -8 -2 48 26 125 64 160 78 233 132 263 192 27
56 20 74 -27 65 -47 -9 -81 -27 -111 -60 -24 -27 -24 -27 19 3 41 30 105 51
117 39 11 -11 -27 -66 -75 -108 -27 -24 -81 -61 -120 -82 l-71 -38 20 51 c52
131 152 219 251 220 32 0 37 -4 42 -27z m-2116 -171 c52 -61 122 -115 210
-162 66 -35 78 -59 16 -34 -20 9 -64 20 -97 25 -34 6 -85 21 -114 34 -55 25
-134 99 -166 156 -17 29 -11 26 45 -27 70 -66 123 -94 141 -76 8 8 2 22 -24
49 -19 22 -49 61 -67 88 -18 28 -23 39 -11 25 12 -14 42 -49 67 -78z m1073 68
c41 -10 127 -45 190 -77 105 -53 121 -58 183 -59 64 -1 70 -3 117 -43 69 -58
137 -158 168 -244 110 -313 -132 -642 -539 -733 -119 -27 -320 -23 -441 9
-149 39 -266 104 -363 202 -118 118 -164 221 -165 371 0 203 129 388 350 499
176 88 349 114 500 75z m-1041 -147 c2 -2 0 -3 -6 -3 -15 0 -109 86 -134 123
-13 18 12 -1 57 -43 43 -41 80 -76 83 -77z"/>
<path d="M1861 2178 c-7 -24 -22 -53 -34 -65 -11 -13 -16 -23 -9 -23 17 0 53
57 59 95 8 48 -1 44 -16 -7z"/>
<path d="M1694 1945 c-33 -57 -54 -127 -53 -174 1 -30 3 -27 10 19 5 30 25 88
44 128 39 82 38 94 -1 27z"/>
<path d="M1521 1636 c3 -3 39 -12 80 -21 42 -8 115 -29 164 -45 103 -35 103
-23 0 15 -84 32 -262 69 -244 51z"/>
<path d="M777 1473 c-74 -51 -117 -89 -117 -104 0 -6 22 9 49 34 28 26 71 60
97 77 27 16 43 30 37 30 -6 0 -36 -17 -66 -37z"/>
<path d="M1302 1238 c-19 -62 -21 -79 -9 -75 14 4 32 39 42 80 11 41 -21 36
-33 -5z m15 -20 c-3 -8 -6 -5 -6 6 -1 11 2 17 5 13 3 -3 4 -12 1 -19z"/>
<path d="M900 1116 c-66 -17 -152 -70 -200 -122 -23 -25 -40 -47 -37 -50 2 -2
33 15 68 39 98 65 209 94 260 67 26 -14 25 -71 -2 -127 -43 -89 -151 -182
-211 -183 -14 0 -18 9 -18 40 0 51 21 102 61 147 27 31 29 37 16 50 -13 13
-18 13 -43 0 -110 -57 -157 -244 -77 -307 82 -64 243 31 325 194 59 117 44
218 -37 252 -40 16 -46 17 -105 0z m104 -16 c38 -14 59 -63 54 -125 -10 -115
-125 -268 -224 -298 -66 -20 -101 -12 -125 27 -23 38 -24 66 -4 134 17 56 79
132 108 132 13 0 9 -11 -18 -45 -56 -74 -73 -174 -34 -198 49 -30 184 75 239
187 37 74 38 109 4 143 -23 23 -31 25 -80 20 -31 -3 -84 -19 -120 -36 -35 -16
-64 -28 -64 -26 0 9 97 61 145 77 58 20 84 22 119 8z"/>
<path d="M1288 1120 c-63 -6 -98 -21 -98 -42 0 -5 14 -22 31 -38 37 -33 35
-68 -6 -90 -28 -15 -34 -40 -9 -40 20 0 56 19 71 39 19 25 16 82 -7 106 l-20
21 64 13 c36 7 73 19 83 27 16 12 15 13 -12 12 -16 0 -60 -4 -97 -8z m7 -21
c-70 -16 -71 -17 -42 -47 45 -47 28 -111 -33 -127 -23 -6 -23 -5 8 20 41 33
44 75 7 99 -14 9 -25 25 -25 36 0 19 24 26 95 27 25 1 24 0 -10 -8z"/>
<path d="M1707 1068 c-34 -61 -93 -125 -104 -114 -3 3 7 26 22 51 27 48 28 75
0 75 -12 0 -15 6 -10 20 5 15 2 20 -12 20 -40 0 -60 -59 -27 -78 16 -9 16 -11
0 -33 -31 -45 -16 -99 29 -99 40 1 89 59 125 150 31 79 19 83 -23 8z m-116 29
c-13 -16 -5 -27 21 -27 24 0 23 -27 -2 -65 -47 -71 -8 -88 54 -22 38 40 39 41
21 8 -24 -40 -61 -71 -86 -71 -30 0 -35 44 -10 85 25 43 25 45 6 45 -21 0 -30
27 -15 45 7 8 15 15 17 15 3 0 0 -6 -6 -13z"/>
<path d="M1415 1104 c-41 -21 -65 -44 -65 -62 0 -13 3 -13 18 1 10 9 35 23 56
32 34 14 41 15 53 2 12 -12 13 -19 3 -38 -18 -35 -62 -79 -78 -79 -17 0 -8 46
14 71 14 16 10 29 -9 29 -6 0 -8 -3 -4 -6 3 -4 -1 -20 -9 -36 -21 -40 -15 -74
11 -70 44 8 105 92 91 127 -3 9 -16 20 -28 25 -22 8 -22 9 -2 9 47 2 57 -45
24 -110 -20 -38 -70 -79 -98 -79 -7 0 -18 12 -24 26 -10 22 -9 32 9 65 12 22
17 39 12 39 -12 0 -39 -55 -39 -80 0 -85 92 -76 145 13 56 97 10 168 -80 121z"/>
<path d="M1735 851 c-46 -16 -51 -16 -62 -2 -11 14 -14 14 -23 1 -5 -8 -10
-25 -10 -37 0 -31 26 -30 104 6 102 46 96 69 -9 32z m-10 -26 c-58 -25 -75
-27 -75 -12 0 10 7 13 18 11 9 -3 28 -1 42 5 37 14 50 12 15 -4z"/>
<path d="M1229 818 c-29 -31 -39 -61 -39 -113 0 -36 5 -48 24 -60 37 -24 67
-2 89 65 4 10 6 7 6 -7 2 -52 35 -82 71 -63 49 26 69 141 30 180 -11 11 -24
20 -28 20 -15 0 -53 -47 -62 -76 l-8 -29 -1 33 c-1 30 -30 72 -51 72 -5 0 -19
-10 -31 -22z m63 -23 c8 -17 7 -37 -1 -72 -15 -58 -26 -73 -57 -73 -28 0 -38
27 -30 83 11 70 25 77 19 10 -6 -64 5 -85 32 -63 19 16 38 85 30 110 -10 33
-21 22 -17 -15 5 -38 -14 -95 -31 -95 -6 0 -7 20 -2 58 4 31 7 62 8 67 1 22
38 14 49 -10z m128 -34 c0 -54 -29 -106 -60 -106 -23 0 -25 4 -28 52 -2 29 1
61 7 70 7 13 9 2 8 -42 -2 -48 1 -60 14 -63 34 -7 64 107 37 138 -11 12 -10
12 5 1 11 -9 17 -27 17 -50z m-27 -5 c-1 -20 -8 -46 -15 -59 -12 -20 -13 -18
-16 27 -4 56 3 79 21 73 7 -2 11 -19 10 -41z"/>
<path d="M1111 799 c-39 -38 -41 -64 -6 -55 22 6 24 4 16 -17 -14 -36 -17 -90
-6 -94 14 -4 70 159 62 180 -10 25 -32 21 -66 -14z m39 -63 c-27 -77 -38 -81
-16 -7 8 28 13 51 10 51 -3 0 -16 -7 -29 -16 -36 -23 -31 -1 6 31 47 39 56 20
29 -59z"/>
<path d="M1563 756 c-36 -31 -25 -42 21 -19 33 15 38 16 52 1 21 -21 8 -41
-21 -34 -33 8 -72 -9 -80 -34 -9 -29 8 -46 25 -25 7 9 29 15 54 15 45 0 66 13
66 42 0 15 27 38 45 38 4 0 4 -25 0 -56 -5 -45 -4 -55 7 -52 18 6 38 48 38 81
0 59 -34 84 -70 52 -15 -14 -18 -14 -30 0 -19 23 -75 19 -107 -9z m95 2 c17
-17 15 -63 -3 -78 -9 -8 -27 -10 -47 -6 -22 4 -37 1 -51 -11 -19 -18 -20 -17
-8 5 9 18 20 22 57 22 32 0 46 5 51 16 8 22 -9 47 -38 55 l-24 7 26 1 c14 1
30 -4 37 -11z m92 -8 c6 -11 8 -36 4 -55 -10 -57 -21 -49 -16 12 4 50 3 55
-12 50 -10 -4 -15 -3 -11 3 10 16 23 12 35 -10z"/>
<path d="M1798 773 c-2 -14 -5 -28 -13 -77 -8 -54 4 -72 38 -55 13 7 23 7 33
-2 11 -9 17 -9 29 1 20 16 19 59 -1 67 -11 4 -14 14 -10 34 3 16 2 31 -3 33
-9 6 -31 -36 -31 -59 0 -8 -3 -15 -8 -15 -4 0 -6 18 -4 40 3 32 1 40 -12 40
-9 0 -17 -3 -18 -7z m17 -55 l-7 -52 25 17 c38 24 57 22 57 -8 0 -18 -5 -25
-20 -25 -11 0 -20 4 -20 10 0 6 -10 5 -25 -2 -34 -15 -37 -9 -25 46 6 26 8 52
5 57 -4 5 -1 9 5 9 8 0 10 -15 5 -52z"/>
<path d="M1860 670 c0 -5 5 -10 10 -10 6 0 10 5 10 10 0 6 -4 10 -10 10 -5 0
-10 -4 -10 -10z"/>
</g>
</svg>
